<?xml version="1.0" encoding="UTF-8"?>
<svg width="436px" height="239px" viewBox="0 0 436 239" version="1.1" xmlns="http://www.w3.org/2000/svg" xmlns:xlink="http://www.w3.org/1999/xlink">
    <title>Group 6</title>
    <defs>
        <polygon id="path-1" points="0.0214802197 0.308566315 5.42706013 0.308566315 5.42706013 12.4405188 0.0214802197 12.4405188"></polygon>
        <polygon id="path-3" points="0.340562458 0.0481581325 3.14593831 0.0481581325 3.14593831 12.5944983 0.340562458 12.5944983"></polygon>
        <polygon id="path-5" points="0.401906539 0.198986024 11.3581649 0.198986024 11.3581649 21.5776551 0.401906539 21.5776551"></polygon>
        <polygon id="path-7" points="0.267679176 0.223993262 33.213734 0.223993262 33.213734 83.4695684 0.267679176 83.4695684"></polygon>
        <polygon id="path-9" points="0.21025088 0.252524877 11.9196419 0.252524877 11.9196419 7.40668304 0.21025088 7.40668304"></polygon>
        <polygon id="path-11" points="0.0844250639 0.376647274 6.33865815 0.376647274 6.33865815 8.47499167 0.0844250639 8.47499167"></polygon>
    </defs>
    <g id="Page-1" stroke="none" stroke-width="1" fill="none" fill-rule="evenodd">
        <g id="Consumo-Copy-15" transform="translate(-712.000000, -803.000000)">
            <g id="Group-6" transform="translate(712.000000, 803.000000)">
                <g id="Nature/Plants/Potted_Plant" transform="translate(23.900000, 188.626190) scale(-1, 1) translate(-23.900000, -188.626190) translate(0.900000, 154.126190)">
                    <g id="Group" transform="translate(0.396000, 0.000000)">
                        <path d="M8.90305705,10.3437769 C8.27610297,10.390852 7.6452973,10.4999805 7.01620345,10.67587 C1.91198414,12.1060956 -1.05417198,17.3412692 0.346952693,22.4531917 C1.32953738,26.0385987 4.21095841,28.5806514 7.59907816,29.307319 C8.45413226,29.4904837 9.23215445,29.9432601 9.79919483,30.610442 C12.1987385,33.4392246 16.1393482,34.7402078 19.9318854,33.5804497 C24.9299719,32.0522224 27.7955586,26.7511438 26.3417954,21.7308036 C26.3276729,21.6811609 26.3131225,21.6315181 26.2977161,21.5818753 C25.8021442,19.9693409 26.3927221,18.2331274 27.7283696,17.2034677 C30.7570072,14.8685452 32.2154778,10.8402047 31.0929519,6.94153468 C29.6302017,1.86427653 24.2957426,-1.08604525 19.2180565,0.373281304 C15.7957003,1.3567219 13.344802,4.0776598 12.5479498,7.30230075 C12.127698,9.0012821 10.6486855,10.2145345 8.90305705,10.3437769" id="Back-leaves" fill="#1BB3BC"></path>
                        <path d="M44.6090547,30.0121609 C43.6470119,33.9540544 40.3808593,36.7280587 36.5934575,37.2493079 C34.9201535,37.4808316 33.545134,38.6936561 33.1753809,40.3417108 C33.1663939,40.3900697 33.1531273,40.4414243 33.1402886,40.4927789 C32.7611205,42.0599501 32.0113433,43.4465243 31.0005136,44.5797492 C30.5853972,45.0522115 30.121922,45.4835901 29.6203587,45.8631862 C27.4707407,47.4949786 24.6552248,48.2182226 21.8362852,47.6263608 C21.7913499,47.6169458 21.742563,47.6036792 21.69506,47.5938363 C17.9329076,46.7417778 15.2042665,43.8008711 14.4322357,40.2830809 C14.4095541,40.1837954 14.3902961,40.0875055 14.3710381,39.987364 C14.2131227,39.1280304 13.7594904,38.3461566 13.1089988,37.7637098 C10.5280022,35.4506131 9.28992837,31.8142794 10.216451,28.213894 C11.5388319,23.0814296 16.7128079,20.0078568 21.8525475,21.3011368 C22.4863488,21.4594802 23.0876256,21.6781652 23.6576617,21.9482048 C25.2346758,22.7044013 27.1232413,22.3860028 28.3300744,21.1179721 C30.6239132,18.7145768 34.1023314,17.5689412 37.558496,18.4150083 C42.6913883,19.6697724 45.8573995,24.8796966 44.6090547,30.0121609" id="Front-leaves" fill="#63BA68"></path>
                        <path d="M32.9956398,45.0975747 L29.6203587,45.8631862 L21.8367131,47.6263608 C21.790494,47.6169458 21.742991,47.6045351 21.6946321,47.5938363 C17.9324796,46.7417778 15.2038386,43.8004431 14.4318077,40.2830809 L31.0000856,44.5788933 L32.9956398,45.0975747 Z" id="Shadow" fill="#3A8340"></path>
                        <polygon id="Pot" fill="#B9DEE7" points="11.7639362 44.6144135 18.6736977 68.9821714 28.8029647 68.9821714 35.7127261 44.6144135"></polygon>
                    </g>
                </g>
                <path d="M339.787444,101.15046 C329.015071,58.8197503 291.793133,28.2629087 248.102631,27.0373015 C225.004771,26.3893593 200.699376,34.044696 183.003259,60.8335174 C151.369534,108.721428 184.947224,141.813444 208.356702,157.538111 C219.666319,165.15035 229.856914,174.303413 238.633321,184.732188 C254.445661,203.483351 284.865,226.784306 321.093056,190.275292 C347.351196,163.813513 346.962908,129.346889 339.787444,101.15046 Z" id="Path" fill="#E6F3F6" fill-rule="nonzero" transform="translate(257.035932, 118.260000) rotate(-244.000000) translate(-257.035932, -118.260000) "></path>
                <g id="Group-5-Copy-2" transform="translate(17.200000, 69.413095)">
                    <g id="Group-4">
                        <g id="Group-2">
                            <g id="Group-190">
                                <path d="M371.529552,140.455913 L341.351104,85.9099356 C329.373915,64.2683674 308.294212,49.6053575 284.4717,47.0215961 C283.876001,46.9569474 283.275278,46.8971038 282.679579,46.8416282 L272.764521,45.9614458 L251.231451,51.8684966 L242.548816,59.0584735 C235.979802,64.498569 232.848092,73.2942782 234.41918,81.8903629 C235.813609,89.5197758 238.426228,96.8504071 242.148195,103.57736 L263.569911,142.294468 L268.936643,143.96747 L269.926684,131.030317 L272.764521,140.455913 L371.529552,140.455913 Z" id="Fill-94" fill="#758BB2"></path>
                                <path d="M21.9711045,153.767893 C21.9711045,155.074446 17.2244146,156.133735 11.3686883,156.133735 C5.51330515,156.133735 0.766272169,155.074446 0.766272169,153.767893 C0.766272169,152.461699 5.51330515,151.40241 11.3686883,151.40241 C17.2244146,151.40241 21.9711045,152.461699 21.9711045,153.767893" id="Fill-155" fill="#86C4D5"></path>
                                <path d="M212.172025,98.6819277 L210.357665,98.1158161 C210.357665,98.1158161 210.353437,98.1158161 210.348787,98.1106824 L210.290873,98.076613 C210.255364,98.0616785 210.210554,98.0322762 210.15729,97.9982068 L204.121119,94.3705191 C203.340758,93.902882 202.984397,92.874267 203.278617,91.9539274 C203.55001,91.1073269 204.26823,90.5710843 205.044363,90.5710843 C205.22191,90.5710843 205.400302,90.6004867 205.578272,90.659758 L207.584552,91.3145433 L209.425966,91.9100572 L211.784381,92.6777848 L212.172025,98.6819277 Z" id="Fill-100" fill="#FFC4B9"></path>
                                <g id="Group-103" transform="translate(207.674030, 87.867470)">
                                    <mask id="mask-2" fill="white">
                                        <use xlink:href="#path-1"></use>
                                    </mask>
                                    <g id="Clip-102"></g>
                                    <path d="M5.42755583,12.440873 L3.04903458,12.440873 L2.73550598,10.4091534 C2.73550598,10.4091534 2.73096209,10.4091534 2.72683128,10.4047251 L2.66982608,10.3719554 C2.63512726,10.3577847 2.59175374,10.3298862 2.53970552,10.2971165 C1.89942974,9.88616715 -0.0829466947,8.25654022 0.0256936475,3.95529939 L1.82466205,4.52079764 L1.60738137,3.10107375 C1.55946395,2.79729004 1.5846619,2.48907799 1.67636592,2.19946494 L2.26913737,0.308566315 C3.25805364,1.02728493 4.19492168,2.71315169 4.19492168,2.71315169 L5.42755583,12.440873 Z" id="Fill-101" fill="#FFC4B9" mask="url(#mask-2)"></path>
                                </g>
                                <path d="M61.3160907,168.3 L363.670529,168.3 C379.722053,168.3 392.734385,155.287669 392.734385,139.236145 L392.734385,139.236145 L392.734385,139.236145 L32.2522353,139.236145 C32.2522353,155.287669 45.2645666,168.3 61.3160907,168.3 Z" id="Fill-104" fill="#D8EDF2"></path>
                                <path d="M187.754339,149.374465 C187.754339,147.88128 205.159434,146.671084 226.630074,146.671084 C248.100296,146.671084 265.505391,147.88128 265.505391,149.374465 C265.505391,150.868117 248.100296,152.078313 226.630074,152.078313 C205.159434,152.078313 187.754339,150.868117 187.754339,149.374465" id="Fill-105" fill="#86C4D5"></path>
                                <polygon id="Fill-106" fill="#B9DEE7" points="415.224358 148.698795 342.441165 148.698795 333.617882 159.734536 333.617882 161.540964 406.401494 161.540964 415.224358 150.505223"></polygon>
                                <path d="M261.442166,72.3520938 C261.206237,71.6093288 260.908799,70.9064174 260.664444,70.2091994 C260.504771,69.7519785 260.349311,69.3039546 260.202277,68.8651277 C258.656524,64.2789046 257.794543,60.7551506 257.794543,60.7551506 L267.204719,45.398398 L268.87939,42.6598902 L269.075295,42.3410619 L269.297321,41.9806282 L271.802797,37.8888517 L272.656353,36.4987952 C272.656353,36.4987952 272.802544,37.0160153 273.096191,37.8564434 C273.375934,38.655266 273.798078,39.7501436 274.3622,40.9645818 C275.024064,42.3870467 275.872985,43.9667361 276.930029,45.4308063 C280.800099,50.7882612 282.94452,57.2068714 283.843576,63.8448951 C286.873572,86.2215648 265.771875,85.9907646 261.442166,72.3520938" id="Fill-107" fill="#FFC4B9"></path>
                                <polygon id="Fill-108" fill="#FFFFFF" points="408.329161 158.161446 335.545594 158.161446 344.368504 147.346988 417.15207 147.346988"></polygon>
                                <path d="M275.786522,22.978316 C275.786522,35.6698455 266.003072,45.9614458 253.939119,45.9614458 C249.297409,45.9614458 244.990161,44.4337009 241.449599,41.835528 L248.082277,40.847811 L245.560079,29.0192757 L244.77925,25.359865 L236.364851,27.3996298 L232.679521,28.2945706 C232.556802,27.7501665 232.45197,27.1965723 232.368354,26.6337881 C232.324675,26.3519583 232.288899,26.0705661 232.253955,25.7843601 C232.148707,24.8657877 232.091716,23.928835 232.091716,22.978316 C232.091716,10.2867864 241.870589,0 253.939119,0 C257.856159,0 261.533169,1.08443192 264.713893,2.98590759 C269.249939,5.6952369 272.777189,10.0657864 274.540606,15.3124588 C275.347227,17.7080118 275.786522,20.2921807 275.786522,22.978316" id="Fill-109" fill="#BC4072"></path>
                                <path d="M273.216239,38.064305 L264.954826,57.3908697 C263.063805,62.3936021 257.292139,64.3836513 252.881707,61.5818429 C251.053358,60.4218142 249.34325,59.1287388 247.893857,57.9317527 L244.24092,54.9151564 C243.113243,53.9890465 242.121773,52.9068458 241.293668,51.7098597 C239.975468,49.8250305 239.055027,47.6567161 238.605878,45.3410066 L236.088138,32.3659033 C235.591776,29.8093183 236.425313,27.1696879 238.282909,25.4179054 C242.570086,21.3734576 248.240224,19.2912322 254.01774,19.6386321 L262.826487,20.1682104 L270.572737,33.048094 L271.158093,31.6815385 C271.757654,31.6815385 273.216239,38.064305 273.216239,38.064305" id="Fill-110" fill="#FFC4B9"></path>
                                <polygon id="Fill-111" fill="#FFC4B9" points="235.94714 34.2591522 239.556094 33.7951807 248.155982 50.768986 239.038443 52.0445783"></polygon>
                                <path d="M250.512604,122.390359 C254.521124,119.919212 261.030673,123.945311 265.052287,131.382781 C269.073902,138.820251 269.08495,146.852352 265.07643,149.323062 C261.06791,151.793772 254.558362,147.76811 250.537156,140.330639 C246.515133,132.893169 246.504084,124.861505 250.512604,122.390359" id="Fill-112" fill="#FFC4B9"></path>
                                <polygon id="Fill-113" fill="#FFC4B9" points="251.614989 141.263855 231.449145 109.531314 236.454298 100.033735 262.292537 126.128832"></polygon>
                                <path d="M331.062957,89.2192771 L360.293234,143.283391 L373.578659,143.627923 L388.86838,146.380202 C389.703818,146.529941 390.271932,147.357701 390.146847,148.242882 C390.026363,149.100678 389.29593,149.712443 388.477227,149.640445 L378.850659,148.791041 L369.240826,150.534461 C368.982287,150.539761 368.955095,150.935973 369.209868,150.980585 L376.056106,152.027432 C376.508756,152.077345 376.915807,152.291132 377.216598,152.612695 C377.516971,152.939558 377.718196,153.368014 377.759194,153.847709 C377.855413,154.990848 377.027924,155.984248 375.940224,156.030186 C372.003166,156.1892 365.721696,156.172415 361.369639,155.928593 C355.65712,155.60703 352.306584,150.711144 352.306584,150.711144 L352.32039,150.70496 L310.485338,93.7432452 L331.062957,89.2192771 Z" id="Fill-114" fill="#FFC4B9"></path>
                                <path d="M237.507699,98.6001191 C236.312373,96.7148812 234.356961,95.5036312 232.197201,95.305116 L228.421203,94.9633016 L227.371659,92.8230176 L228.100567,93.1749111 C228.633555,93.4290808 229.265135,93.2533531 229.602624,92.7542165 L229.664981,92.6661336 C230.069462,92.0701495 229.905142,91.2379629 229.309797,90.8549555 L227.505222,89.7037421 L228.603219,88.6550731 C228.949556,88.3220232 229.025396,87.7768731 228.781022,87.3561784 C228.598163,87.0327694 228.264887,86.8526595 227.923185,86.8526595 C227.816588,86.8526595 227.709569,86.8662445 227.607606,86.9034935 L224.750538,87.9013286 L220.964849,88.9688412 C220.329477,89.1450071 219.858004,89.6993599 219.761097,90.3742242 L218.965196,95.9611367 L218.974465,90.166068 C218.992161,89.9487091 219.041458,89.7405529 219.125724,89.5420376 L222.093603,82.4209045 C222.44921,81.5746947 221.978158,80.5904446 221.102204,80.3822884 C220.46304,80.2302248 219.804915,80.5904446 219.494813,81.1868669 L214.997912,89.7545761 C214.864349,90.0087458 214.784295,90.2909617 214.766178,90.5819422 L214.468295,95.6749767 L213.460884,90.567919 C213.407375,90.3093671 213.411588,90.0416125 213.465098,89.7870046 L215.282313,81.4966909 C215.460116,80.6877302 214.935554,79.8927926 214.149345,79.7722811 C213.49122,79.6706133 212.864696,80.0729025 212.651922,80.724541 L210.300877,87.9986142 L209.696683,89.8702671 C209.603147,90.1568653 209.577024,90.4618689 209.625899,90.7624903 L209.848364,92.1669969 L210.776563,97.9949323 L211.095935,100.005064 L211.612069,103.254053 C211.749003,104.109028 212.358674,104.801859 213.166793,105.014398 L231.740053,110.172289 L242.372846,106.253256 L237.507699,98.6001191 Z" id="Fill-115" fill="#FFC4B9"></path>
                                <path d="M272.573668,29.4015871 C272.573668,26.2286289 271.135346,23.6566265 269.360386,23.6566265 C267.586284,23.6566265 266.147961,26.2286289 266.147961,29.4015871 C266.147961,32.5745453 267.586284,35.146988 269.360386,35.146988 C271.135346,35.146988 272.573668,32.5745453 272.573668,29.4015871" id="Fill-116" fill="#FFC4B9"></path>
                                <polygon id="Fill-117" fill="#FFC4B9" points="241.087705 33.7951807 242.345939 23.6566265 244.943129 33.7951807"></polygon>
                                <path d="M281.569658,10.8144578 C281.569658,15.6671874 277.82914,19.6012048 273.21603,19.6012048 C268.602087,19.6012048 264.86282,15.6671874 264.86282,10.8144578 C264.86282,5.96172827 268.602087,2.02771084 273.21603,2.02771084 C277.82914,2.02771084 281.569658,5.96172827 281.569658,10.8144578" id="Fill-118" fill="#BC4072"></path>
                                <g id="Group-121" transform="translate(240.445134, 39.202410)">
                                    <mask id="mask-4" fill="white">
                                        <use xlink:href="#path-3"></use>
                                    </mask>
                                    <g id="Clip-120"></g>
                                    <path d="M0.650442167,12.5944983 L0.340000209,0.0481581325 L2.96128696,8.1190025 C3.6078737,10.1099973 2.48939912,12.2771133 0.650442167,12.5944983" id="Fill-119" fill="#FFC4B9" mask="url(#mask-4)"></path>
                                </g>
                                <path d="M275.143951,18.0272771 C268.567053,26.417566 258.618794,31.7674699 247.488564,31.7674699 C247.055507,31.7674699 246.618294,31.7595876 246.188977,31.7398818 C245.571393,31.7197381 244.957549,31.6803265 244.346615,31.6247124 L242.372922,23.5479646 L241.465663,31.2358514 C239.94373,30.965663 238.452135,30.5886255 237.005425,30.1205035 C235.596951,29.6720872 234.225881,29.1321485 232.896371,28.5050663 C232.790808,27.5841489 232.734286,26.6474669 232.734286,25.6950202 C232.734286,12.9948555 242.505499,2.70361446 254.562521,2.70361446 C258.476243,2.70361446 262.1485,3.78699518 265.327853,5.69188852 C269.858743,8.40252985 273.380968,12.7763401 275.143951,18.0272771" id="Fill-122" fill="#BC4072"></path>
                                <path d="M324.051054,70.0320489 L333.617882,89.1594983 L307.97274,101.385542 L292.493359,76.7737818 L307.427881,65.7151222 C313.059336,61.5454491 320.813267,63.5586548 324.051054,70.0320489" id="Fill-123" fill="#758BB2"></path>
                                <g id="Group-126" transform="translate(257.794543, 46.637349)">
                                    <mask id="mask-6" fill="white">
                                        <use xlink:href="#path-5"></use>
                                    </mask>
                                    <g id="Clip-125"></g>
                                    <path d="M11.3581649,0.198769735 C9.42831102,12.5605602 5.92287379,18.7079306 2.31976582,21.5776551 C1.4655752,19.107633 0.817435576,16.9516627 0.401906539,15.500795 C3.24035541,15.0383688 5.80592592,13.1406477 6.9591261,10.1766211 L11.3581649,0.198769735 Z" id="Fill-124" fill="#FFC4B9" mask="url(#mask-6)"></path>
                                </g>
                                <path d="M415.224358,28.7256806 C415.224358,30.7787748 413.642604,32.4433735 411.690219,32.4433735 C409.738259,32.4433735 408.156081,30.7787748 408.156081,28.7256806 C408.156081,26.6730324 409.738259,25.0084337 411.690219,25.0084337 C413.642604,25.0084337 415.224358,26.6730324 415.224358,28.7256806" id="Fill-127" fill="#FFCD09"></path>
                                <path d="M385.666107,69.6179101 C385.666107,71.1110695 384.515741,72.3216867 383.095824,72.3216867 C381.676217,72.3216867 380.525542,71.1110695 380.525542,69.6179101 C380.525542,68.125075 381.676217,66.9144578 383.095824,66.9144578 C384.515741,66.9144578 385.666107,68.125075 385.666107,69.6179101" id="Fill-127" fill="#D7EDF1"></path>
                                <path d="M53.4570676,113.213714 C53.4570676,114.520228 52.4504969,115.579518 51.2080702,115.579518 C49.9659134,115.579518 48.9590729,114.520228 48.9590729,113.213714 C48.9590729,111.907483 49.9659134,110.848193 51.2080702,110.848193 C52.4504969,110.848193 53.4570676,111.907483 53.4570676,113.213714" id="Fill-127" fill="#758BB2"></path>
                            </g>
                            <g id="Group-3" transform="translate(377.955259, 32.443373)">
                                <path d="M29.5582511,107.806447 C29.5582511,109.113 24.6677222,110.172289 18.6345496,110.172289 C12.6017306,110.172289 7.71084811,109.113 7.71084811,107.806447 C7.71084811,106.500253 12.6017306,105.440964 18.6345496,105.440964 C24.6677222,105.440964 29.5582511,106.500253 29.5582511,107.806447" id="Fill-155" fill="#86C4D5"></path>
                                <path d="M24.4758223,97.8283216 C23.4932277,99.8661512 21.7906404,101.120948 20.2357883,101.127716 C19.766634,101.129927 19.3127029,101.017691 18.8944083,100.781622 C18.7093068,100.675746 18.5376988,100.549294 18.381314,100.404135 C17.017791,99.149338 16.7908255,96.5099241 17.9339567,94.1275304 C18.7511709,92.4294015 20.0707539,91.2778613 21.387569,90.9381607 C22.1276288,90.7447409 22.8656127,90.8072189 23.5153707,91.1753526 C25.1830136,92.121127 25.6784627,94.739216 24.7335804,97.2263632 C24.6585019,97.4272654 24.5726978,97.6304124 24.4758223,97.8283216 M24.5419052,89.0417484 C23.6565322,88.5396799 22.6542165,88.4296887 21.6453271,88.6545346 C19.6849817,89.0843981 17.6983415,90.7784117 16.4825537,93.3055897 C14.638805,97.138071 15.2598463,101.440447 17.8678737,102.914852 C18.03533,103.010627 18.206938,103.089566 18.381314,103.155785 C18.8899105,103.352198 19.4272236,103.433382 19.9756083,103.409064 C22.1764126,103.313663 24.5484789,101.522005 25.9272252,98.6502624 C26.1545367,98.17962 26.3417141,97.7041139 26.4956769,97.2263632 C27.5879485,93.8050393 26.8305895,90.3369505 24.5419052,89.0417484" id="Fill-156" fill="#B9DEE7"></path>
                                <path d="M21.847403,84.4879518 C21.847403,84.4994053 21.8452401,84.5093809 21.8427168,84.5212038 L21.8427168,84.5256374 L21.3650875,88.5273267 L21.0968941,90.7821794 L20.3557575,96.9925381 L19.8965124,100.844594 L19.6257957,103.097968 L19.4906176,104.242575 C19.3345319,105.541988 18.7837262,106.700634 17.9643665,107.597698 C16.8995235,108.772601 15.3804819,109.496386 13.7143666,109.496386 L11.0681198,109.496386 C8.38330216,109.496386 6.07914612,107.616541 5.42957021,104.997764 C5.37477802,104.787538 5.33332339,104.570292 5.30340397,104.351198 L3.25878991,89.4872001 L2.57496888,84.5256374 C2.57244555,84.5138144 2.5702827,84.4994053 2.5702827,84.4879518 L21.847403,84.4879518 Z" id="Fill-157" fill="#B9DEE7"></path>
                                <path d="M21.847403,84.4879518 C21.847403,84.4994053 21.8452198,84.5093809 21.8426728,84.5212038 L21.8426728,84.5256374 L21.3605629,88.5273267 L21.0898536,90.7821794 L20.3417646,96.9925381 L19.8782113,100.844594 L19.604955,103.097968 L19.4685088,104.242575 C19.3109589,105.541988 18.7549861,106.700634 17.9279402,107.597698 C16.8531079,108.772601 15.3198164,109.496386 13.6380714,109.496386 L12.2088428,109.496386 C12.8896185,109.173472 13.5012613,108.71792 14.0084774,108.163351 C14.8355233,107.267026 15.3914961,106.108749 15.549046,104.808967 L15.6854922,103.66436 L15.9591124,101.411355 L16.4223018,97.55893 L17.1703908,91.3485712 L17.441464,89.093349 L17.9235739,85.0920292 L17.9235739,85.0868567 C17.925757,85.0757727 17.9279402,85.0654276 17.9279402,85.0539742" id="Fill-158" fill="#FFFFFF"></path>
                                <path d="M21.847403,84.826074 C21.847403,85.0946631 20.8535921,85.338711 19.2325664,85.5200427 C17.4749233,85.7160308 14.9783203,85.839759 12.2088428,85.839759 C9.43936539,85.839759 6.94240193,85.7160308 5.18511928,85.5200427 C3.56409363,85.338711 2.5702827,85.0946631 2.5702827,84.826074 C2.5702827,84.2663999 6.88580842,83.8120482 12.2088428,83.8120482 C17.5318773,83.8120482 21.847403,84.2663999 21.847403,84.826074" id="Fill-159" fill="#BC4072"></path>
                                <path d="M29.4822844,48.4870517 L18.1044149,64.2274301 C15.7400385,67.4973428 14.5855341,71.5421093 14.8502271,75.6232784 L15.376041,83.6845809 L15.5139242,85.7821836 C14.548027,85.8178432 13.5135453,85.839759 12.4379844,85.839759 C11.7678575,85.839759 11.1113046,85.8319585 10.4793992,85.8141287 L9.54136434,83.6845809 L3.37626797,69.6733225 C0.331762708,62.7627856 2.06030441,54.5904183 7.60992705,49.6378173 C11.3384905,46.3107006 13.3281531,41.5438268 13.3281531,36.6915186 C13.3281531,34.018533 12.7230384,31.3169455 11.4724444,28.8192864 L0.520369862,6.95734012 C-0.713078064,4.50239827 0.328190602,1.47578816 2.77829756,0.385941078 C3.35912186,0.125180119 3.97066628,0 4.57899579,0 C5.89174445,0 7.1769879,0.59321261 8.06715652,1.6830597 L28.8807419,27.2183181 C33.8327513,33.2930826 34.0835131,42.1192096 29.4822844,48.4870517" id="Fill-160" fill="#D8EDF2"></path>
                                <g id="Group-163" transform="translate(5.783136, 2.027711)">
                                    <mask id="mask-8" fill="white">
                                        <use xlink:href="#path-7"></use>
                                    </mask>
                                    <g id="Clip-162"></g>
                                    <path d="M28.8337155,51.2011882 L16.064064,65.5282274 C13.4117216,68.5039259 11.8616788,72.3852396 11.6995346,76.4664414 L11.499756,81.4399076 L11.4251907,83.3019443 C9.97363031,83.4091199 8.25862947,83.4695684 6.41771183,83.4695684 C6.12331976,83.4695684 5.8289277,83.4695684 5.54121837,83.4625223 L4.85782078,81.2830382 L1.08559272,69.2563801 C-1.17493034,62.0537359 1.36275036,54.1375767 7.30757076,49.8564869 C11.3034946,46.9772093 13.7462101,42.4750931 14.2470635,37.6588671 C14.5249246,35.0046953 14.2132981,32.2574402 13.2488739,29.6351615 L4.80048995,6.69587804 C3.84591401,4.11661788 5.17929551,1.23400261 7.68989354,0.431483708 C8.28536041,0.239012677 8.89770997,0.181530963 9.49352856,0.253104969 C10.7790757,0.402928276 11.9735267,1.13795252 12.7314895,2.31873819 L30.4544546,30.0278914 C34.6702052,36.6204877 33.9970076,45.4077731 28.8337155,51.2011882" id="Fill-161" fill-opacity="0.5" fill="#D8EDF2" mask="url(#mask-8)"></path>
                                </g>
                            </g>
                        </g>
                        <g id="Group-266" transform="translate(128.465187, 82.666265) scale(-1, 1) translate(-128.465187, -82.666265) translate(61.465187, 12.166265)">
                            <g id="Group-8" transform="translate(0.000000, 43.257831)">
                                <path d="M119.575744,95.9097512 L13.7648221,95.9097512 C3.18450412,95.9097512 -3.42814369,83.8121797 1.86221905,74.1342948 L24.7530314,32.2589136 C30.6758091,21.4245545 40.3168768,13.4114414 51.6795638,9.87918121 L66.6704869,5.21885306 L81.6610025,9.87918121 C93.0236895,13.4114414 102.664757,21.4245545 108.587535,32.2589136 L131.478347,74.1342948 C136.76871,83.8121797 130.156062,95.9097512 119.575744,95.9097512" id="Fill-242" fill="#FFCC33"></path>
                                <path d="M39.4968156,95.9097512 L13.7650259,95.9097512 C3.18552283,95.9097512 -3.42834743,83.8139013 1.86160782,74.1321428 L14.7270952,50.5942146 L39.4968156,95.9097512 Z" id="Fill-244" fill="#F3A38D"></path>
                                <path d="M119.575744,95.9097512 L89.9761178,95.9097512 L116.679349,47.0580809 L131.478755,74.1321428 C136.768303,83.8139013 130.155655,95.9097512 119.575744,95.9097512" id="Fill-246" fill="#F3A38D"></path>
                                <path d="M83.5846523,1.89718567 L83.1250105,7.19406953 C75.3726304,6.15939749 71.9391715,0.199703755 71.8275209,-3.56514818e-13 C74.5690722,1.50251252 79.0599517,1.64755598 82.6775932,1.45258658 L83.5846523,1.89718567 Z" id="Fill-248" fill="#FFA48C"></path>
                            </g>
                            <g id="Group-13" transform="translate(5.783136, 0.000000)">
                                <g id="Group-12" transform="translate(3.811359, 36.370094)">
                                    <path d="M100.463,103.470029 L11.4607177,103.470029 C10.3359973,103.470029 9.36429726,102.637981 9.13131655,101.473799 L0.383175195,57.8473441 C0.0690165433,56.2808338 1.19860766,54.8059173 2.71257636,54.8059173 L91.7120175,54.8059173 C92.8371439,54.8059173 93.8080321,55.6383934 94.0418246,56.8021479 L102.792807,100.428602 C103.106966,101.995541 101.976563,103.470029 100.463,103.470029" id="Fill-252" fill="#86C4D5"></path>
                                    <path d="M103.275329,103.470029 L14.2734524,103.470029 C13.1479201,103.470029 12.1770319,102.637981 11.9432394,101.473799 L3.19550396,57.8473441 C2.88134531,56.2808338 4.01093643,54.8059173 5.52490512,54.8059173 L94.5243463,54.8059173 C95.6494726,54.8059173 96.6207668,55.6383934 96.8541534,56.8021479 L105.605136,100.428602 C105.919295,101.995541 104.789298,103.470029 103.275329,103.470029" id="Fill-253" fill="#D8EDF2"></path>
                                    <path d="M74.4884521,9.4903652 L74.0306085,14.7578629 L73.2172055,24.1552124 C73.1441454,24.9585839 72.9131941,25.7307108 72.5450521,26.4215162 C72.177316,27.1071854 71.6630537,27.707681 71.0383894,28.172498 C68.054694,30.3750285 64.2835725,31.6885859 60.1873334,31.6885859 C56.7628417,31.6885859 53.5701131,30.7722202 50.8689169,29.1881616 C48.6003992,27.8519198 47.6286992,24.9453157 48.5447923,22.3811181 C51.1173215,15.1957154 56.3695346,0.557832697 56.3695346,0.557832697 L72.7719445,8.6463329 L73.5849416,9.04823266 L74.4884521,9.4903652 Z" id="Fill-255" fill="#F3A38D"></path>
                                </g>
                                <g id="Group-11" transform="translate(0.094033, 0.000000)">
                                    <g id="Group-258" transform="translate(66.286136, 43.721274)">
                                        <mask id="mask-10" fill="white">
                                            <use xlink:href="#path-9"></use>
                                        </mask>
                                        <g id="Clip-257"></g>
                                        <path d="M11.9196419,2.13918531 L11.4617983,7.40668304 C3.73974621,6.37775117 0.319719341,0.451120712 0.208505555,0.252524877 C2.93933166,1.74670173 7.41264238,1.89094052 11.0161314,1.69705277 L11.9196419,2.13918531 Z" id="Fill-256" fill="#ED856C" mask="url(#mask-10)"></path>
                                    </g>
                                    <g id="Group-9">
                                        <path d="M64.0539454,3.80030065 L74.3099671,7.98151339 L81.3724484,19.7598729 C83.8264578,23.8516319 85.3708682,28.4758332 85.8912188,33.2857901 L86.3770688,37.7811609 C86.5110124,39.0215288 86.3864043,40.2935694 85.9115133,41.4376355 C85.3282498,42.8423586 84.3232668,44.0347897 83.0146783,44.8056325 L81.3245535,45.7956157 C78.7244238,47.3180411 75.7415402,47.9574854 72.7838217,47.624923 L56.1516783,45.7566669 L49.2158346,12.8638037 L64.0539454,3.80030065 Z" id="Fill-259" fill="#F3A38D"></path>
                                        <polygon id="Fill-260" fill="#F3A38D" points="82.0743941 25.5867346 85.2659051 22.605657 74.3097236 7.9818986 67.0820452 13.0037196"></polygon>
                                        <path d="M66.4242603,1.88136839 C65.7350595,1.56892235 65.0320585,1.28900495 64.316069,1.05317239 C59.5432117,-0.530886197 54.2390447,-0.381511313 49.28719,1.86596009 C44.8702979,3.87117882 41.4149586,7.24730802 39.1638942,11.3215187 L39.1602412,11.3206627 C39.1602412,11.3206627 39.1326407,11.3754477 39.079875,11.4743176 C39.0315741,11.5637714 38.9816497,11.6523691 38.9337547,11.7422508 C37.5837655,14.187462 29.9826685,26.9446764 12.9024228,37.6521592 C4.66448478,42.8156509 1.66267e-13,50.9187034 1.66267e-13,59.6826006 C1.66267e-13,61.0128503 0.101066543,62.342672 0.297923062,63.6583694 L0.297923062,63.6630775 C0.302793739,63.6630775 0.302793739,63.6630775 0.302793739,63.6677856 C1.36257183,70.6374722 5.23354218,77.200979 11.9619762,81.1617675 C14.2507884,82.5112775 16.7319924,83.1498658 19.181131,83.1498658 C24.3140125,83.1498658 29.2946854,80.3395636 32.0376882,75.3288708 L36.1452923,67.8258859 C42.6131451,57.5001865 48.9734372,53.5817708 51.8832607,52.2318328 C52.6248212,51.8881421 53.4025059,51.6501695 54.193585,51.46741 C56.0541836,51.0376897 56.7170015,50.1902333 56.7170015,50.1902333 L56.7165956,50.1893773 C61.4013749,46.290222 60.3103433,33.8129251 59.0951094,26.0711115 L66.5082794,12.5310701 C69.7221143,12.2366004 72.6924154,10.2767505 74.2867502,7.11376944 L76.5236085,2.67746376 C76.5236085,2.67746376 71.5741892,1.27958877 66.4242603,1.88136839" id="Fill-261" fill="#3B111B"></path>
                                    </g>
                                    <g id="Group-10" transform="translate(55.180035, 15.900736)">
                                        <path d="M5.22764028,11.8797546 C5.77843265,14.3005694 5.09694379,16.5488968 3.70595968,16.9007196 C2.31538147,17.2521144 0.741341094,15.574322 0.190548729,13.1530792 C-0.359431855,10.7322645 0.321651112,8.48436505 1.71222933,8.13297026 C3.10361932,7.78114747 4.67725381,9.45893987 5.22764028,11.8797546" id="Fill-262" fill="#F3A38D"></path>
                                        <g id="Group-265" transform="translate(22.065123, 0.000000)">
                                            <mask id="mask-12" fill="white">
                                                <use xlink:href="#path-11"></use>
                                            </mask>
                                            <g id="Clip-264"></g>
                                            <path d="M6.33865815,8.27592503 L0.0834915175,0.376604473 C0.0834915175,0.376604473 1.03692649,9.9627056 6.33865815,8.27592503" id="Fill-263" fill="#ED856C" mask="url(#mask-12)"></path>
                                        </g>
                                    </g>
                                </g>
                            </g>
                        </g>
                    </g>
                </g>
            </g>
        </g>
    </g>
</svg>